<?xml version="1.0" encoding="utf-8"?>
<!-- Generator: Adobe Illustrator 24.1.1, SVG Export Plug-In . SVG Version: 6.00 Build 0)  -->
<svg version="1.1" id="Layer_2" xmlns="http://www.w3.org/2000/svg" xmlns:xlink="http://www.w3.org/1999/xlink" x="0px" y="0px"
	 viewBox="0 0 483 305" style="enable-background:new 0 0 483 305;" xml:space="preserve">
<style type="text/css">
	.st0{fill:#0F0F0F;}
	.st1{fill-rule:evenodd;clip-rule:evenodd;fill:#61BB46;}
	.st2{fill:#61BB46;}
	.st3{fill-rule:evenodd;clip-rule:evenodd;fill:#FDB827;}
	.st4{fill-rule:evenodd;clip-rule:evenodd;fill:#F5821F;}
	.st5{fill:#F5821F;}
	.st6{fill-rule:evenodd;clip-rule:evenodd;fill:#E03A3E;}
	.st7{fill:#E03A3E;}
	.st8{fill-rule:evenodd;clip-rule:evenodd;fill:#963D97;}
	.st9{fill:#963D97;}
	.st10{fill-rule:evenodd;clip-rule:evenodd;fill:#009DDC;}
	.st11{fill:#009DDC;}
	.st12{fill:#FFFFFF;}
</style>
<path class="st0" d="M0,0h483v305H0V0z"/>
<g transform="translate(3e-8 -.00025013) scale(.85753)">
	<g>
		<path class="st1" d="M221.2,96.1c0-0.1,0.1-0.1,0.1-0.2c6.8-10.4,17.4-16.6,27.4-16.6c10.2,0,16.6,5.6,25.1,5.6
			c8.2,0,13.2-5.6,25-5.6c8.9,0,18.4,4.9,25.1,13.3c-1.9,1-3.5,2.2-5,3.5L221.2,96.1L221.2,96.1z"/>
		<path class="st2" d="M319,96.5h-0.1l-98.3,0l0.3-0.5c0-0.1,0.1-0.1,0.1-0.2c6.7-10.3,17.3-16.7,27.7-16.7c5.4,0,9.7,1.5,13.9,3
			c3.7,1.3,7.2,2.6,11.2,2.6c3.7,0,6.7-1.2,10-2.4c4-1.5,8.5-3.2,15-3.2c9.2,0,18.7,5,25.4,13.4l0.3,0.3l-0.4,0.2
			C322.3,94,320.6,95.1,319,96.5L319,96.5z M221.9,95.8l96.8,0c1.4-1.2,3-2.3,4.6-3.2c-6.6-8-15.7-12.8-24.6-12.8
			c-6.4,0-10.8,1.7-14.7,3.2c-3.3,1.3-6.5,2.5-10.2,2.5c-4.1,0-7.6-1.3-11.4-2.6c-4.1-1.5-8.3-3-13.6-3
			C238.7,79.7,228.5,85.9,221.9,95.8z"/>
	</g>
	<g>
		<path class="st1" d="M289.9,69.9c4.3-5.5,7.5-13.3,6.4-21.3c-7,0.5-15.2,5-20,10.8c-4.3,5.3-7.9,13.1-6.5,20.8
			C277.4,80.4,285.3,75.9,289.9,69.9L289.9,69.9z"/>
		<path class="st2" d="M270.3,80.6c-0.2,0-0.4,0-0.6,0l-0.3,0l-0.1-0.3c-1.2-6.7,1.3-14.5,6.6-21.1c4.9-5.9,13.2-10.4,20.2-10.9
			l0.3,0l0,0.3c1,7.1-1.3,14.9-6.4,21.6v0c-2.3,3-5.5,5.7-9,7.5C277.6,79.6,273.8,80.6,270.3,80.6z M270,79.9
			c6.9,0.1,14.8-3.9,19.6-10.1c4.9-6.4,7.2-13.9,6.3-20.7c-6.8,0.6-14.7,4.9-19.4,10.6C271.4,65.9,269,73.5,270,79.9z"/>
	</g>
	<g>
		<path class="st3" d="M220.9,96c-2.9,4.6-4.9,11.1-5.5,16.9l94.4,0c1-6.3,4.4-12.3,9.8-16.9L220.9,96L220.9,96L220.9,96z"/>
	</g>
	<g>
		<path class="st4" d="M216.3,129.6c-0.9-5.9-1.1-11.5-0.5-16.7l93.6,0c-0.9,5.6-0.1,11.5,2.2,16.7L216.3,129.6L216.3,129.6z"/>
		<path class="st5" d="M312.2,130l-96.2,0l0-0.3c-0.9-5.9-1.1-11.5-0.5-16.8l0-0.3l94.4,0l-0.1,0.4c-0.9,5.6-0.2,11.3,2.1,16.5
			L312.2,130z M216.6,129.2l94.5,0c-2.1-5.1-2.8-10.6-2-16l-92.9,0C215.6,118.3,215.8,123.7,216.6,129.2z"/>
	</g>
	<g>
		<path class="st6" d="M220.9,146.3c-2.2-5.6-3.7-11.3-4.6-16.7l95.3,0c3,6.7,8.4,12.4,16.1,15.3c-0.2,0.5-0.4,1-0.7,1.5
			L220.9,146.3L220.9,146.3z"/>
		<path class="st7" d="M327.3,146.7h-0.2l-106.4,0l-0.1-0.2c-2.2-5.5-3.7-11.2-4.6-16.8l-0.1-0.4l96,0l0.1,0.2
			c3.1,7,8.7,12.4,15.9,15.1l0.4,0.1l-0.2,0.3c-0.2,0.4-0.4,0.8-0.6,1.2L327.3,146.7z M221.1,146l105.7,0l0,0
			c0.1-0.3,0.3-0.6,0.4-0.9c-7.1-2.8-12.7-8.1-15.9-15.1l-94.7,0C217.6,135.3,219.1,140.7,221.1,146z"/>
	</g>
	<g>
		<path class="st8" d="M327.1,146.3c-2.6,5.8-4.2,8.9-7.8,14.4c-0.5,0.7-1,1.5-1.5,2.3l-88,0c-0.3-0.4-0.6-0.8-0.8-1.3
			c-3.3-5-6-10.2-8-15.5L327.1,146.3z"/>
		<path class="st9" d="M229.5,163.4l-0.1-0.2c-0.3-0.4-0.6-0.8-0.8-1.3c-3.2-4.9-5.9-10.2-8-15.5l-0.2-0.5h0.5l106.7,0l-0.2,0.5
			c-2.7,6.1-4.3,9-7.9,14.5c-0.6,0.9-1.1,1.6-1.5,2.3l-0.1,0.2h-0.2L229.5,163.4z M221.4,146.7c2.1,5.2,4.7,10.2,7.8,14.9
			c0.2,0.4,0.5,0.7,0.7,1.1l87.6,0c0.4-0.6,0.9-1.3,1.4-2.1c3.5-5.3,5-8.2,7.6-13.9L221.4,146.7z"/>
	</g>
	<g>
		<path class="st10" d="M317.7,163.1c-5.4,7.9-12.6,16.6-21.4,16.7c-8.6,0.1-10.8-5.6-22.4-5.5c-11.6,0.1-14,5.6-22.6,5.5
			c-9.1-0.1-16.3-8.6-21.7-16.7L317.7,163.1L317.7,163.1z"/>
		<path class="st11" d="M251.6,180.2c-0.1,0-0.1,0-0.2,0c-9.5-0.1-16.7-9.1-22-16.9l-0.4-0.6l0.7,0l88.7,0l-0.4,0.6
			c-3.4,5.1-6.5,8.7-9.5,11.4c-4.1,3.6-8.2,5.5-12.2,5.5c-0.1,0-0.1,0-0.2,0c-3.9,0-6.6-1.2-9.3-2.5c-3.3-1.5-6.7-3.1-12.9-3
			c-6.1,0-9.6,1.6-12.9,3.1C258.2,179,255.5,180.2,251.6,180.2z M230.4,163.4c5.1,7.5,12.1,15.9,21,16c0.1,0,0.1,0,0.2,0
			c3.8,0,6.4-1.2,9.2-2.4c3.3-1.5,6.9-3.1,13.2-3.1c0.1,0,0.1,0,0.2,0c6.2,0,9.8,1.7,13,3.1c2.7,1.2,5.2,2.4,9,2.4
			c0.1,0,0.1,0,0.2,0c3.9,0,7.7-1.8,11.7-5.3c2.9-2.5,5.7-6,9-10.7L230.4,163.4z"/>
	</g>
</g>
<g>
	<path class="st12" d="M78.8,209.8l-0.4,9.6c0,0.9-0.1,1.6-0.3,1.9c-0.2,0.4-0.4,0.6-0.7,0.6c-0.6,0-1.1-0.9-1.5-2.6
		c-0.2-1-0.5-1.8-0.7-2.3c-0.5-1.4-1.2-2.4-2.2-2.9c-0.9-0.5-2.8-0.8-5.7-0.8h-1.2c-0.3,0-0.5,0.1-0.7,0.3c-0.2,0.2-0.2,0.4-0.2,0.7
		v35.6c0,1.8,0.1,2.9,0.4,3.3c0.2,0.4,0.8,0.8,1.6,1.1c0.4,0.1,0.9,0.2,1.6,0.3c1.1,0.1,1.6,0.5,1.6,1.1c0,0.3-0.1,0.6-0.4,0.8
		c-0.3,0.2-0.6,0.3-1.1,0.3c-0.4,0-1.3-0.1-2.9-0.2s-2.9-0.2-4-0.2c-1.1,0-2.4,0.1-4,0.2s-2.5,0.2-2.9,0.2c-0.5,0-0.9-0.1-1.1-0.3
		c-0.3-0.2-0.4-0.5-0.4-0.9c0-0.6,0.5-1,1.6-1.1c0.7,0,1.2-0.1,1.6-0.2c0.9-0.2,1.4-0.6,1.6-1c0.2-0.5,0.4-1.6,0.4-3.3v-35.5
		c0-0.3-0.1-0.5-0.3-0.7c-0.2-0.2-0.4-0.3-0.7-0.3h-2c-1.6,0-2.9,0.3-3.9,0.8c-1,0.5-1.9,1.4-2.7,2.7c-0.4,0.6-0.9,1.4-1.5,2.4
		c-0.9,1.6-1.6,2.3-2.1,2.3c-0.2,0-0.4-0.1-0.6-0.3c-0.2-0.2-0.2-0.4-0.2-0.7c0-0.2,0-0.4,0.1-0.6c0-0.2,0.1-0.6,0.2-1.1l1.8-7.4
		c0.1-0.3,0.1-0.7,0.2-1.2c0.3-1.4,0.7-2.1,1.2-2.1c0.3,0,0.6,0.4,0.9,1.1c0.3,0.7,0.5,1.2,0.8,1.4c0.4,0.2,1.1,0.4,2.3,0.4
		c1.2,0.1,3.3,0.1,6.4,0.1h3.6h5.4c2.8,0,4.7,0,5.8-0.1c1.1-0.1,1.9-0.3,2.3-0.5c0.4-0.3,0.9-0.8,1.3-1.5c0.4-0.7,0.8-1,1-1
		c0.3,0,0.5,0.1,0.6,0.3c0.1,0.2,0.2,0.5,0.2,1V209.8z"/>
	<path class="st12" d="M90.4,212.5v15.2c0,0.4,0,0.7,0,0.8c0,0.1,0.1,0.2,0.1,0.2c0.1,0,0.2,0,0.3-0.1c0.1-0.1,0.2-0.2,0.3-0.3
		l0.7-0.9c0.9-1.2,2-2.2,3.3-2.9c1.3-0.7,2.6-1,3.9-1c2.9,0,5.2,1,6.8,3c1.6,2,2.4,4.9,2.4,8.5v16.3c0,1,0.1,1.6,0.2,2
		c0.1,0.4,0.4,0.6,0.7,0.9c0.4,0.3,0.9,0.5,1.5,0.7c0.6,0.2,0.9,0.6,0.9,1.2c0,0.3-0.1,0.5-0.2,0.6c-0.1,0.1-0.4,0.2-0.9,0.2
		c-0.2,0-1,0-2.2-0.1c-1.2-0.1-2.3-0.1-3.2-0.1c-0.9,0-2,0-3.3,0.1c-1.3,0.1-2.2,0.1-2.6,0.1c-0.5,0-0.9-0.1-1.1-0.2
		c-0.2-0.1-0.2-0.4-0.2-0.7c0-0.6,0.4-0.9,1.3-1.1c0.6-0.1,1-0.2,1.3-0.4c0.6-0.3,1-0.6,1.2-0.9s0.3-1.1,0.3-2.2v-12.1v-2.6
		c0-2.9-0.5-5.1-1.5-6.6c-1-1.5-2.4-2.3-4.3-2.3c-1.9,0-3.4,0.7-4.4,2c-1.1,1.4-1.6,3.3-1.6,5.7v15.8c0,0.8,0.1,1.5,0.3,1.9
		c0.2,0.5,0.5,0.8,0.8,1.1c0.3,0.2,0.9,0.4,1.7,0.5s1.2,0.5,1.2,1.2c0,0.3-0.1,0.5-0.2,0.6c-0.2,0.1-0.5,0.2-1,0.2
		c-0.1,0-0.9,0-2.2-0.1c-1.3-0.1-2.5-0.1-3.6-0.1c-1,0-2.2,0-3.5,0.1c-1.3,0.1-2.1,0.1-2.4,0.1c-0.5,0-0.9-0.1-1-0.2
		c-0.2-0.1-0.2-0.4-0.2-0.7c0-0.6,0.4-0.9,1.2-1c0.6-0.1,1.1-0.2,1.4-0.4c0.6-0.2,1-0.5,1.2-0.9c0.2-0.4,0.3-1.1,0.3-2.3v-36.4
		c0-0.9-0.2-1.7-0.5-2.2c-0.3-0.5-0.9-0.9-1.7-1.1c-0.4-0.1-0.7-0.2-0.8-0.3c-0.1-0.1-0.2-0.3-0.2-0.5c0-0.3,0.1-0.6,0.4-0.8
		c0.2-0.2,0.8-0.4,1.7-0.6l1.3-0.5c1.2-0.5,2.4-1,3.5-1.6c1.1-0.6,1.7-1,1.8-1c0.3,0,0.5,0.1,0.7,0.3c0.1,0.2,0.2,0.6,0.2,1.1
		c0,0.4,0,1.2-0.1,2.3C90.5,210.9,90.4,211.8,90.4,212.5z"/>
	<path class="st12" d="M124.4,224.7v26.6c0,0.9,0.1,1.6,0.3,2c0.2,0.4,0.5,0.8,0.9,1c0.4,0.2,1,0.4,1.7,0.5c0.9,0.1,1.3,0.5,1.3,1
		c0,0.4-0.1,0.6-0.2,0.8c-0.1,0.1-0.5,0.2-1.1,0.2c-0.4,0-1.3,0-2.6-0.1c-1.3-0.1-2.4-0.1-3.3-0.1c-0.9,0-2,0-3.2,0.1
		c-1.2,0.1-1.9,0.1-2.1,0.1c-0.5,0-0.8-0.1-0.9-0.2c-0.1-0.1-0.2-0.4-0.2-0.8c0-0.5,0.3-0.9,1-1c0.5-0.1,0.9-0.2,1.2-0.3
		c0.5-0.3,0.8-0.6,1-1c0.2-0.4,0.2-1.1,0.2-2.2v-17.2c0-1.1-0.1-2-0.4-2.5s-0.8-0.9-1.7-1c-0.4-0.1-0.7-0.2-0.8-0.3
		c-0.1-0.1-0.2-0.3-0.2-0.6c0-0.5,0.8-1.2,2.3-2c0.1-0.1,0.4-0.2,0.7-0.4c0.3-0.2,0.6-0.3,0.8-0.4c1-0.6,2-1.4,2.9-2.3
		c0.9-0.9,1.5-1.4,1.7-1.4c0.2,0,0.4,0.1,0.5,0.4C124.3,223.8,124.4,224.2,124.4,224.7z M121.7,210.7c0.9,0,1.6,0.4,2.2,1.2
		s1,1.7,1,2.8s-0.3,2-1,2.8s-1.4,1.2-2.2,1.2s-1.6-0.4-2.3-1.2s-1-1.7-1-2.8s0.3-2,1-2.8S120.8,210.7,121.7,210.7z"/>
	<path class="st12" d="M140.4,224.8v3c0,0.3,0,0.5,0.1,0.7s0.1,0.2,0.2,0.2c0.1,0,0.2,0,0.3-0.1c0.1-0.1,0.2-0.2,0.3-0.3l0.8-0.9
		c1-1.3,2.2-2.2,3.6-2.9c1.3-0.7,2.7-1,4.1-1c3.1,0,5.4,1.1,7.1,3.2c1.7,2.1,2.5,5.1,2.5,9.1v15.7c0,0.8,0.1,1.5,0.2,1.9
		c0.2,0.5,0.4,0.8,0.8,1c0.4,0.2,0.9,0.4,1.8,0.5c0.8,0.1,1.2,0.5,1.2,1.1c0,0.4-0.1,0.6-0.2,0.7c-0.2,0.1-0.5,0.2-1,0.2
		c-0.3,0-1.2-0.1-2.5-0.2c-1.3-0.1-2.4-0.2-3.4-0.2c-1,0-2.1,0.1-3.3,0.2c-1.2,0.1-1.9,0.2-2.1,0.2c-0.5,0-0.8-0.1-1-0.2
		c-0.1-0.1-0.2-0.4-0.2-0.8c0-0.6,0.4-0.9,1.1-1.1c0.5-0.1,0.9-0.2,1.2-0.3c0.5-0.2,0.8-0.5,0.9-0.8c0.2-0.3,0.2-1.1,0.2-2.3v-12.1
		v-2.6c0-2.8-0.5-5-1.6-6.5c-1.1-1.5-2.6-2.3-4.6-2.3s-3.6,0.7-4.7,2c-1.1,1.4-1.7,3.3-1.7,5.7v15.8c0,0.9,0.1,1.6,0.3,2
		c0.2,0.4,0.5,0.7,0.9,1c0.4,0.2,1,0.4,1.7,0.5c0.8,0.1,1.2,0.5,1.2,1.1c0,0.3-0.1,0.6-0.3,0.7c-0.2,0.1-0.5,0.2-1,0.2
		c-0.4,0-1.2-0.1-2.5-0.2c-1.3-0.1-2.4-0.2-3.2-0.2c-0.9,0-2,0.1-3.2,0.2c-1.2,0.1-1.9,0.2-2.1,0.2c-0.5,0-0.8-0.1-1-0.2
		c-0.1-0.1-0.2-0.4-0.2-0.8c0-0.6,0.4-0.9,1.1-1.1c0.5-0.1,0.8-0.2,1.1-0.3c0.5-0.2,0.8-0.6,1-1c0.2-0.4,0.3-1.1,0.3-2.2v-17.2
		c0-1.1-0.1-2-0.4-2.6c-0.3-0.6-0.9-0.9-1.7-0.9c-0.4-0.1-0.6-0.2-0.8-0.3c-0.1-0.1-0.2-0.3-0.2-0.6c0-0.3,0.1-0.6,0.4-0.8
		c0.3-0.3,0.9-0.7,1.9-1.3c0.2-0.1,0.4-0.2,0.7-0.4c0.3-0.2,0.5-0.3,0.6-0.4c1-0.6,1.9-1.3,2.8-2.2c0.9-0.9,1.5-1.4,1.7-1.4
		c0.2,0,0.3,0.1,0.4,0.4C140.4,223.9,140.4,224.3,140.4,224.8z"/>
	<path class="st12" d="M175.2,212.5v25.3v0.4c0,0.1,0,0.2,0,0.2c0,0,0.1,0,0.1,0c0.1,0,0.2,0,0.2,0c0,0,0.1-0.1,0.2-0.1l8.8-8.6
		c0.3-0.2,0.5-0.5,0.6-0.8c0.2-0.3,0.2-0.5,0.2-0.8c0-0.7-0.6-1.1-1.7-1.3c-1.1-0.2-1.7-0.6-1.7-1.2c0-0.4,0.1-0.7,0.2-0.8
		c0.1-0.1,0.4-0.2,0.9-0.2c0,0,0.7,0.1,2,0.2c1.3,0.2,2.5,0.2,3.7,0.2c0.9,0,1.8-0.1,2.8-0.2s1.5-0.2,1.6-0.2c0.5,0,0.9,0.1,1,0.2
		c0.2,0.1,0.2,0.4,0.2,0.8c0,0.5-0.3,0.8-1,1h-0.1c-1.7,0.4-3.4,1.4-5,2.9l-6.6,6.2c-0.2,0.2-0.3,0.3-0.4,0.4
		c-0.1,0.1-0.1,0.3-0.1,0.4c0,0.1,0.1,0.2,0.2,0.4c0,0.1,0,0.1,0.1,0.1l8.3,12.9c0.1,0.2,0.3,0.4,0.5,0.8c1.3,2,2.4,3.2,3.2,3.5
		c0.2,0.1,0.5,0.2,0.9,0.3c1,0.2,1.5,0.6,1.5,1.2c0,0.4-0.1,0.6-0.2,0.7c-0.2,0.1-0.5,0.2-1,0.2c-0.1,0-0.8,0-2.1-0.1
		c-1.3-0.1-2.5-0.1-3.7-0.1c-1.3,0-2.6,0-4.1,0.1c-1.5,0.1-2.3,0.1-2.5,0.1c-0.5,0-0.8-0.1-1-0.2c-0.1-0.1-0.2-0.4-0.2-0.8
		c0-0.5,0.5-0.9,1.4-1.1c0.9-0.2,1.4-0.5,1.4-1c0-0.2-0.1-0.6-0.4-1.1c-0.1-0.2-0.1-0.3-0.1-0.4l-6.1-10.2c-0.3-0.4-0.5-0.7-0.8-1
		c-0.3-0.3-0.5-0.4-0.7-0.4c-0.2,0-0.4,0.1-0.6,0.2s-0.2,0.4-0.3,0.7v9.5c0,0.9,0.1,1.6,0.2,2c0.2,0.4,0.4,0.7,0.8,0.9
		c0.4,0.3,1,0.5,1.7,0.7s1,0.5,1,1.1c0,0.4-0.1,0.6-0.2,0.8c-0.1,0.1-0.5,0.2-1,0.2c-0.4,0-1.1,0-2.3-0.1c-1.2-0.1-2.2-0.1-3-0.1
		c-1,0-2.3,0-3.6,0.1c-1.4,0.1-2.2,0.1-2.5,0.1c-0.6,0-0.9-0.1-1.1-0.2c-0.2-0.1-0.2-0.4-0.2-0.7c0-0.6,0.4-0.9,1.1-1
		c0.7-0.1,1.2-0.3,1.7-0.5c0.6-0.3,1-0.6,1.2-1c0.2-0.4,0.3-1.1,0.3-2.1v-36.4v-1c0-0.9-0.7-1.7-2-2.3h-0.1c-0.5-0.2-0.8-0.3-1-0.4
		c-0.2-0.1-0.2-0.3-0.2-0.5c0-0.3,0.1-0.6,0.4-0.8c0.2-0.2,0.8-0.4,1.7-0.6l1.3-0.5c1.2-0.5,2.4-1,3.5-1.6c1.1-0.6,1.7-1,1.8-1
		c0.3,0,0.5,0.1,0.7,0.3c0.1,0.2,0.2,0.6,0.2,1.1c0,0.5,0,1.3-0.1,2.4C175.2,211.1,175.2,211.9,175.2,212.5z"/>
	<path class="st12" d="M239.7,212.5v37.7c0,1,0.1,1.8,0.2,2.2s0.4,0.7,0.8,0.7c0.4,0,0.8-0.2,1.3-0.7c0.5-0.5,0.8-0.7,0.9-0.7
		c0.1,0,0.3,0.1,0.4,0.4c0.1,0.2,0.2,0.5,0.2,0.9c0,1-0.6,1.7-1.7,2.1c-0.1,0-0.1,0-0.2,0.1c-1.2,0.4-2.6,1-4,1.7
		c-1.4,0.7-2.2,1.1-2.4,1.1c-0.4,0-0.7-0.5-1-1.6s-0.5-1.6-0.7-1.6c0.2,0-0.5,0.5-2.3,1.6c-1.7,1.1-3.6,1.6-5.6,1.6
		c-3.8,0-7-1.6-9.6-4.7c-2.6-3.2-3.8-7.2-3.8-12.1c0-5.1,1.4-9.4,4.3-12.8s6.4-5.1,10.6-5.1c0.8,0,1.7,0.1,2.6,0.2
		c0.9,0.2,1.6,0.4,2.3,0.6l1,0.4h0.1c0.2,0,0.3-0.1,0.4-0.3c0.1-0.2,0.1-0.5,0.1-0.8v-8.6v-1c0-0.9-0.7-1.7-2-2.3h-0.1
		c-0.5-0.2-0.8-0.3-1-0.4c-0.2-0.1-0.2-0.3-0.2-0.5c0-0.3,0.1-0.6,0.4-0.8c0.2-0.2,0.8-0.4,1.7-0.6l1.3-0.5c1.3-0.5,2.4-1,3.6-1.6
		c1.1-0.6,1.7-1,1.8-1c0.3,0,0.5,0.1,0.7,0.3c0.1,0.2,0.2,0.6,0.2,1.1c0,0.4,0,1.2-0.1,2.3C239.8,210.9,239.7,211.8,239.7,212.5z
		 M233.8,236.4c0-4.5-0.4-7.4-1.3-8.8c-0.9-1.4-2.3-2.1-4.4-2.1c-2.6,0-4.8,1.5-6.6,4.4s-2.6,6.7-2.6,11.2c0,4.2,0.9,7.6,2.8,10
		c1.8,2.4,4.4,3.7,7.6,3.7c1.7,0,2.9-0.4,3.5-1.2c0.7-0.8,1-2.7,1-5.6v-0.4V236.4z"/>
	<path class="st12" d="M256,224.7v26.6c0,0.9,0.1,1.6,0.3,2c0.2,0.4,0.5,0.8,0.9,1c0.4,0.2,1,0.4,1.7,0.5c0.9,0.1,1.3,0.5,1.3,1
		c0,0.4-0.1,0.6-0.2,0.8c-0.1,0.1-0.5,0.2-1.1,0.2c-0.4,0-1.3,0-2.6-0.1c-1.3-0.1-2.4-0.1-3.3-0.1c-0.9,0-2,0-3.2,0.1
		c-1.2,0.1-1.9,0.1-2.1,0.1c-0.5,0-0.8-0.1-0.9-0.2c-0.1-0.1-0.2-0.4-0.2-0.8c0-0.5,0.3-0.9,1-1c0.5-0.1,0.9-0.2,1.2-0.3
		c0.5-0.3,0.8-0.6,1-1c0.2-0.4,0.2-1.1,0.2-2.2v-17.2c0-1.1-0.1-2-0.4-2.5c-0.3-0.6-0.8-0.9-1.7-1c-0.4-0.1-0.7-0.2-0.8-0.3
		c-0.1-0.1-0.2-0.3-0.2-0.6c0-0.5,0.8-1.2,2.3-2c0.1-0.1,0.4-0.2,0.7-0.4s0.6-0.3,0.8-0.4c1-0.6,2-1.4,2.9-2.3
		c0.9-0.9,1.5-1.4,1.7-1.4c0.2,0,0.4,0.1,0.5,0.4C255.9,223.8,256,224.2,256,224.7z M253.2,210.7c0.9,0,1.6,0.4,2.2,1.2
		c0.6,0.8,1,1.7,1,2.8s-0.3,2-1,2.8c-0.6,0.8-1.4,1.2-2.2,1.2c-0.9,0-1.6-0.4-2.3-1.2s-1-1.7-1-2.8s0.3-2,1-2.8
		S252.4,210.7,253.2,210.7z"/>
	<path class="st12" d="M272.2,220v3.7c0,0.4,0.1,0.6,0.2,0.7s0.4,0.2,0.7,0.2h5.4c0.4,0,0.6,0.1,0.7,0.2c0.1,0.1,0.2,0.5,0.2,1v0.4
		c0,0.6-0.1,1-0.2,1.2c-0.1,0.1-0.4,0.2-0.7,0.2h-5.5c-0.3,0-0.5,0.1-0.7,0.2c-0.2,0.2-0.3,0.4-0.3,0.7v22.7c0,0.9,0.1,1.5,0.3,1.9
		s0.6,0.7,1.1,1c0.6,0.3,1.4,0.5,2.3,0.7c1,0.2,1.5,0.6,1.5,1.2c0,0.3-0.1,0.5-0.4,0.6c-0.3,0.1-0.7,0.2-1.2,0.2
		c-0.6,0-1.6,0-3.1-0.1c-1.5-0.1-2.7-0.1-3.5-0.1s-2,0-3.3,0.1c-1.4,0.1-2.3,0.1-2.8,0.1c-0.5,0-0.9-0.1-1.1-0.2
		c-0.2-0.1-0.3-0.4-0.3-0.7c0-0.6,0.4-0.9,1.2-1c0.7-0.1,1.2-0.3,1.7-0.5c0.6-0.3,1-0.6,1.3-1s0.3-1.1,0.3-2v-22.7
		c0-0.3-0.1-0.5-0.2-0.7c-0.2-0.2-0.4-0.2-0.7-0.2h-1.3c-0.3,0-0.5-0.1-0.8-0.3c-0.2-0.2-0.3-0.5-0.3-0.7c0-0.2,0.1-0.4,0.3-0.7
		s0.6-0.5,1-0.7l1.3-0.6c0.2-0.1,0.4-0.3,0.6-0.5c0.1-0.2,0.2-0.4,0.3-0.7l0.3-3.7c0.3-4,1.5-7.3,3.7-9.7c2.2-2.5,4.8-3.7,7.9-3.7
		c1.3,0,2.5,0.3,3.6,0.9c1.1,0.6,1.6,1.3,1.6,2c0,0.7-0.3,1.7-1,2.8s-1.2,1.8-1.7,1.8c-0.6,0-1.5-0.9-2.5-2.6s-1.9-2.6-2.5-2.6
		c-1.1,0-1.9,1-2.5,3C272.5,213.6,272.2,216.4,272.2,220z"/>
	<path class="st12" d="M289.5,220v3.7c0,0.4,0.1,0.6,0.2,0.7s0.4,0.2,0.7,0.2h5.4c0.4,0,0.6,0.1,0.7,0.2c0.1,0.1,0.2,0.5,0.2,1v0.4
		c0,0.6-0.1,1-0.2,1.2c-0.1,0.1-0.4,0.2-0.7,0.2h-5.5c-0.3,0-0.5,0.1-0.7,0.2c-0.2,0.2-0.3,0.4-0.3,0.7v22.7c0,0.9,0.1,1.5,0.3,1.9
		s0.6,0.7,1.1,1c0.6,0.3,1.4,0.5,2.3,0.7c1,0.2,1.5,0.6,1.5,1.2c0,0.3-0.1,0.5-0.4,0.6c-0.3,0.1-0.7,0.2-1.2,0.2
		c-0.6,0-1.6,0-3.1-0.1c-1.5-0.1-2.7-0.1-3.5-0.1s-2,0-3.3,0.1c-1.4,0.1-2.3,0.1-2.8,0.1c-0.5,0-0.9-0.1-1.1-0.2
		c-0.2-0.1-0.3-0.4-0.3-0.7c0-0.6,0.4-0.9,1.2-1c0.7-0.1,1.2-0.3,1.7-0.5c0.6-0.3,1-0.6,1.3-1s0.3-1.1,0.3-2v-22.7
		c0-0.3-0.1-0.5-0.2-0.7c-0.2-0.2-0.4-0.2-0.7-0.2h-1.3c-0.3,0-0.5-0.1-0.8-0.3c-0.2-0.2-0.3-0.5-0.3-0.7c0-0.2,0.1-0.4,0.3-0.7
		s0.6-0.5,1-0.7l1.3-0.6c0.2-0.1,0.4-0.3,0.6-0.5c0.1-0.2,0.2-0.4,0.3-0.7l0.3-3.7c0.3-4,1.5-7.3,3.7-9.7c2.2-2.5,4.8-3.7,7.9-3.7
		c1.3,0,2.5,0.3,3.6,0.9c1.1,0.6,1.6,1.3,1.6,2c0,0.7-0.3,1.7-1,2.8s-1.2,1.8-1.7,1.8c-0.6,0-1.5-0.9-2.5-2.6s-1.9-2.6-2.5-2.6
		c-1.1,0-1.9,1-2.5,3C289.8,213.6,289.5,216.4,289.5,220z"/>
	<path class="st12" d="M320.6,236.2h-16.1c-0.4,0-0.6,0.1-0.7,0.2c-0.1,0.1-0.2,0.5-0.2,1v1.7c0,4.4,1,8,2.9,10.6s4.4,4,7.5,4
		c2.2,0,4.2-0.7,6-2.1c1.8-1.4,2.5-2.1,2.3-2.1c0.2,0,0.3,0.1,0.4,0.2c0.1,0.1,0.1,0.3,0.1,0.6c0,1.5-1.3,3.2-3.8,5.1
		c-2.6,1.9-5.4,2.8-8.5,2.8c-4,0-7.2-1.6-9.6-4.7c-2.4-3.1-3.6-7.3-3.6-12.6c0-5.2,1.3-9.5,3.9-12.7c2.6-3.2,6-4.8,10.2-4.8
		c3.4,0,6.2,1.1,8.4,3.2c2.2,2.2,3.3,4.8,3.3,8c0,0.6-0.2,1-0.5,1.2C322.2,236.1,321.5,236.2,320.6,236.2z M309.7,233.9
		c2.6,0,4.4-0.3,5.4-0.9c1-0.6,1.5-1.6,1.5-3.1c0-1.3-0.5-2.4-1.6-3.4s-2.3-1.5-3.8-1.5c-1.6,0-3.1,0.6-4.4,1.9
		c-1.3,1.3-2.1,3-2.5,5l-0.2,1.1v0.2c0,0.2,0.1,0.4,0.2,0.5s0.4,0.2,0.6,0.2H309.7z"/>
	<path class="st12" d="M336.1,224.7v2.8c0,0.3,0,0.5,0.1,0.5c0,0.1,0.1,0.1,0.2,0.1c0.1,0,0.3-0.1,0.5-0.4c0,0,0.1-0.1,0.1-0.1
		l1.5-1.6c0.8-0.9,1.6-1.6,2.4-2.1c0.8-0.5,1.7-0.7,2.5-0.7c1.3,0,2.4,0.5,3.4,1.5c0.9,1,1.4,2.2,1.4,3.6c0,1-0.3,1.9-1,2.6
		c-0.7,0.7-1.4,1-2.4,1c-1.1,0-2.2-0.6-3.4-1.8c-1.2-1.2-2-1.8-2.4-1.8c-0.9,0-1.6,0.6-2,1.7c-0.5,1.1-0.7,2.9-0.7,5.2v15.8
		c0,0.9,0.1,1.5,0.3,1.9c0.2,0.4,0.6,0.7,1.1,1c0.6,0.3,1.4,0.5,2.3,0.7c1,0.2,1.5,0.6,1.5,1.2c0,0.3-0.1,0.5-0.4,0.7
		c-0.3,0.1-0.7,0.2-1.2,0.2c-0.6,0-1.7,0-3.2-0.1c-1.5-0.1-2.7-0.1-3.6-0.1c-0.8,0-1.9,0-3.2,0.1s-2.2,0.1-2.7,0.1
		c-0.5,0-0.9-0.1-1-0.2c-0.2-0.1-0.2-0.4-0.2-0.7c0-0.6,0.4-0.9,1.1-1c0.7-0.1,1.2-0.3,1.6-0.5c0.5-0.3,0.9-0.6,1.1-0.9
		c0.2-0.3,0.3-0.9,0.3-1.7v-0.5v-16.7V233c0-0.7-0.1-1.3-0.4-1.6c-0.3-0.4-0.8-0.6-1.5-0.7c0,0-0.1,0-0.1,0c-0.6-0.2-1-0.5-1-1
		c0-0.5,0.5-1,1.5-1.5l0.1-0.1c0.3-0.1,0.6-0.3,0.9-0.5c0.3-0.2,0.7-0.4,1-0.6c0.9-0.6,1.9-1.4,2.8-2.4s1.6-1.5,1.9-1.5
		c0.2,0,0.4,0.1,0.5,0.4C336,223.9,336.1,224.2,336.1,224.7z"/>
	<path class="st12" d="M372.8,236.2h-16.1c-0.4,0-0.6,0.1-0.7,0.2c-0.1,0.1-0.2,0.5-0.2,1v1.7c0,4.4,1,8,2.9,10.6s4.4,4,7.5,4
		c2.2,0,4.2-0.7,6-2.1c1.8-1.4,2.5-2.1,2.3-2.1c0.2,0,0.3,0.1,0.4,0.2c0.1,0.1,0.1,0.3,0.1,0.6c0,1.5-1.3,3.2-3.8,5.1
		c-2.6,1.9-5.4,2.8-8.5,2.8c-4,0-7.2-1.6-9.6-4.7c-2.4-3.1-3.6-7.3-3.6-12.6c0-5.2,1.3-9.5,3.9-12.7c2.6-3.2,6-4.8,10.2-4.8
		c3.4,0,6.2,1.1,8.4,3.2c2.2,2.2,3.3,4.8,3.3,8c0,0.6-0.2,1-0.5,1.2C374.4,236.1,373.8,236.2,372.8,236.2z M362,233.9
		c2.6,0,4.4-0.3,5.4-0.9c1-0.6,1.5-1.6,1.5-3.1c0-1.3-0.5-2.4-1.6-3.4s-2.3-1.5-3.8-1.5c-1.6,0-3.1,0.6-4.4,1.9
		c-1.3,1.3-2.1,3-2.5,5l-0.2,1.1v0.2c0,0.2,0.1,0.4,0.2,0.5s0.4,0.2,0.6,0.2H362z"/>
	<path class="st12" d="M388.5,224.8v3c0,0.3,0,0.5,0.1,0.7c0,0.2,0.1,0.2,0.2,0.2c0.1,0,0.2,0,0.3-0.1c0.1-0.1,0.2-0.2,0.3-0.3
		l0.8-0.9c1-1.3,2.2-2.2,3.6-2.9c1.3-0.7,2.7-1,4.1-1c3.1,0,5.4,1.1,7.1,3.2c1.7,2.1,2.5,5.1,2.5,9.1v15.7c0,0.8,0.1,1.5,0.2,1.9
		c0.2,0.5,0.4,0.8,0.8,1c0.4,0.2,0.9,0.4,1.8,0.5c0.8,0.1,1.2,0.5,1.2,1.1c0,0.4-0.1,0.6-0.2,0.7c-0.2,0.1-0.5,0.2-1,0.2
		c-0.3,0-1.2-0.1-2.5-0.2c-1.3-0.1-2.4-0.2-3.4-0.2c-1,0-2.1,0.1-3.3,0.2c-1.2,0.1-1.9,0.2-2.1,0.2c-0.5,0-0.8-0.1-1-0.2
		c-0.1-0.1-0.2-0.4-0.2-0.8c0-0.6,0.4-0.9,1.1-1.1c0.5-0.1,0.9-0.2,1.2-0.3c0.5-0.2,0.8-0.5,0.9-0.8s0.2-1.1,0.2-2.3v-12.1v-2.6
		c0-2.8-0.5-5-1.6-6.5c-1.1-1.5-2.6-2.3-4.6-2.3c-2,0-3.6,0.7-4.7,2c-1.1,1.4-1.7,3.3-1.7,5.7v15.8c0,0.9,0.1,1.6,0.3,2
		c0.2,0.4,0.5,0.7,0.9,1c0.4,0.2,1,0.4,1.7,0.5c0.8,0.1,1.2,0.5,1.2,1.1c0,0.3-0.1,0.6-0.3,0.7c-0.2,0.1-0.5,0.2-1,0.2
		c-0.4,0-1.2-0.1-2.5-0.2c-1.3-0.1-2.4-0.2-3.2-0.2c-0.9,0-2,0.1-3.2,0.2c-1.2,0.1-1.9,0.2-2.1,0.2c-0.5,0-0.8-0.1-1-0.2
		c-0.1-0.1-0.2-0.4-0.2-0.8c0-0.6,0.4-0.9,1.1-1.1c0.5-0.1,0.8-0.2,1.1-0.3c0.5-0.2,0.8-0.6,1-1s0.3-1.1,0.3-2.2v-17.2
		c0-1.1-0.1-2-0.4-2.6c-0.3-0.6-0.9-0.9-1.7-0.9c-0.4-0.1-0.6-0.2-0.8-0.3c-0.1-0.1-0.2-0.3-0.2-0.6c0-0.3,0.1-0.6,0.4-0.8
		c0.3-0.3,0.9-0.7,1.9-1.3c0.2-0.1,0.4-0.2,0.7-0.4c0.3-0.2,0.5-0.3,0.6-0.4c1-0.6,1.9-1.3,2.8-2.2c0.9-0.9,1.5-1.4,1.7-1.4
		c0.2,0,0.3,0.1,0.4,0.4C388.4,223.9,388.5,224.3,388.5,224.8z"/>
	<path class="st12" d="M422.8,219.3v4.4c0,0.3,0.1,0.5,0.2,0.7s0.4,0.2,0.7,0.2h5.4c0.4,0,0.7,0,0.8,0.1c0.1,0.1,0.2,0.3,0.2,0.6
		v0.8v0.6c0,0.5-0.1,0.7-0.2,0.9c-0.1,0.1-0.4,0.2-0.8,0.2h-5.5c-0.3,0-0.5,0.1-0.7,0.2s-0.2,0.4-0.2,0.7v17.3v1.2
		c0,2.4,0.2,4.1,0.7,5.1c0.4,1,1.2,1.5,2.3,1.5c0.8,0,1.7-0.3,2.6-1c0.9-0.7,1.4-1,1.7-1c0.2,0,0.4,0.1,0.5,0.3
		c0.1,0.2,0.2,0.4,0.2,0.7c0,0.9-0.9,2.1-2.7,3.3c-1.8,1.3-3.6,1.9-5.6,1.9c-1.9,0-3.4-0.8-4.4-2.3c-1-1.6-1.5-3.9-1.5-6.9v-3.1
		l0.3-15.7c0-0.9-0.1-1.5-0.2-1.8c-0.2-0.3-0.4-0.4-0.8-0.4h-1.3c-0.5,0-0.8-0.1-1-0.2c-0.2-0.2-0.3-0.4-0.3-0.7
		c0-0.4,0.6-1,1.7-1.8c1.2-0.8,2.2-1.7,3-2.6c0.7-0.8,1.4-1.8,2.3-3c0.9-1.3,1.5-1.9,1.8-1.9c0.3,0,0.4,0.1,0.6,0.4
		C422.7,218.2,422.8,218.6,422.8,219.3z"/>
	<path class="st12" d="M438.9,249.7c0.9,0,1.6,0.4,2.3,1.1c0.6,0.7,0.9,1.7,0.9,2.8s-0.3,2-0.9,2.7c-0.6,0.7-1.4,1.1-2.3,1.1
		s-1.6-0.4-2.3-1.1c-0.6-0.7-0.9-1.6-0.9-2.7c0-1.1,0.3-2,1-2.7C437.3,250.1,438.1,249.7,438.9,249.7z"/>
</g>
</svg>
